<mxfile host="app.diagrams.net" agent="Mozilla/5.0 (X11; Ubuntu; Linux x86_64; rv:139.0) Gecko/20100101 Firefox/139.0" version="27.1.6">
  <diagram name="Page-1" id="W8epZQ21CmaLPUGNPq8Y">
    <mxGraphModel dx="2858" dy="2277" grid="1" gridSize="10" guides="1" tooltips="1" connect="1" arrows="1" fold="1" page="1" pageScale="1" pageWidth="850" pageHeight="1100" math="0" shadow="0">
      <root>
        <mxCell id="0" />
        <mxCell id="1" parent="0" />
        <mxCell id="J1t7YMm2EJ_y1uc_iS2--30" value="" style="rounded=0;whiteSpace=wrap;html=1;fillColor=none;" vertex="1" parent="1">
          <mxGeometry x="-20" y="-460" width="570" height="590" as="geometry" />
        </mxCell>
        <mxCell id="J1t7YMm2EJ_y1uc_iS2--31" value="" style="rounded=0;whiteSpace=wrap;html=1;fillColor=none;" vertex="1" parent="1">
          <mxGeometry x="610" y="-460" width="530" height="590" as="geometry" />
        </mxCell>
        <mxCell id="thv_v38bxxTgWXxaM8OV-10" value="" style="rounded=0;whiteSpace=wrap;html=1;fillColor=none;dashed=1;dashPattern=8 8;strokeWidth=2;fontColor=#67AB9F;strokeColor=#67AB9F;" parent="1" vertex="1">
          <mxGeometry x="50" y="-100" width="210" height="210" as="geometry" />
        </mxCell>
        <mxCell id="thv_v38bxxTgWXxaM8OV-2" value="" style="rounded=0;whiteSpace=wrap;html=1;fillColor=none;dashed=1;dashPattern=8 8;strokeWidth=2;fontColor=#67AB9F;strokeColor=#FF0000;" parent="1" vertex="1">
          <mxGeometry x="120" y="-260" width="400" height="240" as="geometry" />
        </mxCell>
        <mxCell id="s7vytsFGn_9YH380_VkC-73" value="D" style="ellipse;whiteSpace=wrap;html=1;fontSize=16;fillColor=#f5f5f5;strokeColor=#666666;fontColor=#333333;" parent="1" vertex="1">
          <mxGeometry x="130" y="-90" width="60" height="60" as="geometry" />
        </mxCell>
        <mxCell id="s7vytsFGn_9YH380_VkC-75" value="D" style="ellipse;whiteSpace=wrap;html=1;fontSize=16;fillColor=#f5f5f5;fontColor=#333333;strokeColor=#666666;" parent="1" vertex="1">
          <mxGeometry x="170" y="-380" width="60" height="60" as="geometry" />
        </mxCell>
        <mxCell id="s7vytsFGn_9YH380_VkC-76" value="" style="edgeStyle=none;curved=1;rounded=0;orthogonalLoop=1;jettySize=auto;html=1;fontSize=16;startSize=8;endSize=8;endArrow=none;endFill=0;entryX=0.5;entryY=0;entryDx=0;entryDy=0;" parent="1" source="s7vytsFGn_9YH380_VkC-75" target="s7vytsFGn_9YH380_VkC-152" edge="1">
          <mxGeometry relative="1" as="geometry">
            <mxPoint x="192" y="-183" as="sourcePoint" />
            <mxPoint x="136.97390550178648" y="-244.23770449095196" as="targetPoint" />
          </mxGeometry>
        </mxCell>
        <mxCell id="s7vytsFGn_9YH380_VkC-79" value="T" style="ellipse;whiteSpace=wrap;html=1;fontSize=16;fillColor=#f5f5f5;fontColor=#333333;strokeColor=#666666;" parent="1" vertex="1">
          <mxGeometry x="290" y="-251" width="60" height="60" as="geometry" />
        </mxCell>
        <mxCell id="s7vytsFGn_9YH380_VkC-80" value="" style="edgeStyle=none;curved=1;rounded=0;orthogonalLoop=1;jettySize=auto;html=1;fontSize=16;startSize=8;endSize=8;endArrow=none;endFill=0;entryX=0.5;entryY=0;entryDx=0;entryDy=0;" parent="1" source="s7vytsFGn_9YH380_VkC-75" target="s7vytsFGn_9YH380_VkC-79" edge="1">
          <mxGeometry relative="1" as="geometry">
            <mxPoint x="194" y="-294" as="sourcePoint" />
            <mxPoint x="165" y="-239" as="targetPoint" />
          </mxGeometry>
        </mxCell>
        <mxCell id="s7vytsFGn_9YH380_VkC-87" value="b" style="ellipse;whiteSpace=wrap;html=1;fontSize=16;fillColor=#f8cecc;strokeColor=#b85450;" parent="1" vertex="1">
          <mxGeometry x="290" y="-90" width="60" height="60" as="geometry" />
        </mxCell>
        <mxCell id="s7vytsFGn_9YH380_VkC-88" value="c" style="ellipse;whiteSpace=wrap;html=1;fontSize=16;fillColor=#f8cecc;strokeColor=#b85450;" parent="1" vertex="1">
          <mxGeometry x="450" y="-90" width="60" height="60" as="geometry" />
        </mxCell>
        <mxCell id="s7vytsFGn_9YH380_VkC-89" value="" style="edgeStyle=none;curved=1;rounded=0;orthogonalLoop=1;jettySize=auto;html=1;fontSize=16;startSize=8;endSize=8;endArrow=none;endFill=0;" parent="1" source="s7vytsFGn_9YH380_VkC-79" target="s7vytsFGn_9YH380_VkC-87" edge="1">
          <mxGeometry relative="1" as="geometry">
            <mxPoint x="117" y="-183" as="sourcePoint" />
            <mxPoint x="91" y="-123" as="targetPoint" />
          </mxGeometry>
        </mxCell>
        <mxCell id="s7vytsFGn_9YH380_VkC-90" value="" style="edgeStyle=none;curved=1;rounded=0;orthogonalLoop=1;jettySize=auto;html=1;fontSize=16;startSize=8;endSize=8;endArrow=none;endFill=0;" parent="1" source="s7vytsFGn_9YH380_VkC-79" target="s7vytsFGn_9YH380_VkC-88" edge="1">
          <mxGeometry relative="1" as="geometry">
            <mxPoint x="294" y="-182" as="sourcePoint" />
            <mxPoint x="276" y="-124" as="targetPoint" />
          </mxGeometry>
        </mxCell>
        <mxCell id="s7vytsFGn_9YH380_VkC-152" value="a" style="ellipse;whiteSpace=wrap;html=1;fontSize=16;fillColor=#f8cecc;strokeColor=#b85450;" parent="1" vertex="1">
          <mxGeometry x="40" y="-251" width="60" height="60" as="geometry" />
        </mxCell>
        <mxCell id="s7vytsFGn_9YH380_VkC-153" value="" style="edgeStyle=none;curved=1;rounded=0;orthogonalLoop=1;jettySize=auto;html=1;fontSize=16;startSize=8;endSize=8;endArrow=none;endFill=0;exitX=0;exitY=1;exitDx=0;exitDy=0;entryX=0.5;entryY=0;entryDx=0;entryDy=0;" parent="1" source="s7vytsFGn_9YH380_VkC-79" target="s7vytsFGn_9YH380_VkC-73" edge="1">
          <mxGeometry relative="1" as="geometry">
            <mxPoint x="302" y="-181" as="sourcePoint" />
            <mxPoint x="302" y="-125" as="targetPoint" />
          </mxGeometry>
        </mxCell>
        <mxCell id="thv_v38bxxTgWXxaM8OV-1" value="" style="rounded=0;whiteSpace=wrap;html=1;fillColor=none;dashed=1;dashPattern=8 8;strokeWidth=2;strokeColor=#7EA6E0;" parent="1" vertex="1">
          <mxGeometry x="20" y="-400" width="340" height="220" as="geometry" />
        </mxCell>
        <mxCell id="thv_v38bxxTgWXxaM8OV-3" value="Innov 3" style="text;html=1;align=center;verticalAlign=middle;whiteSpace=wrap;rounded=0;fontSize=16;fontColor=#7EA6E0;" parent="1" vertex="1">
          <mxGeometry x="20" y="-400" width="60" height="30" as="geometry" />
        </mxCell>
        <mxCell id="thv_v38bxxTgWXxaM8OV-4" value="Innov 2" style="text;html=1;align=center;verticalAlign=middle;whiteSpace=wrap;rounded=0;fontSize=16;fontColor=#FF0000;" parent="1" vertex="1">
          <mxGeometry x="120" y="-260" width="60" height="30" as="geometry" />
        </mxCell>
        <mxCell id="thv_v38bxxTgWXxaM8OV-5" value="a" style="ellipse;whiteSpace=wrap;html=1;fontSize=16;fillColor=#f8cecc;strokeColor=#b85450;" parent="1" vertex="1">
          <mxGeometry x="190" y="40" width="60" height="60" as="geometry" />
        </mxCell>
        <mxCell id="thv_v38bxxTgWXxaM8OV-6" value="c" style="ellipse;whiteSpace=wrap;html=1;fontSize=16;fillColor=#f8cecc;strokeColor=#b85450;" parent="1" vertex="1">
          <mxGeometry x="70" y="40" width="60" height="60" as="geometry" />
        </mxCell>
        <mxCell id="thv_v38bxxTgWXxaM8OV-7" value="" style="edgeStyle=none;curved=1;rounded=0;orthogonalLoop=1;jettySize=auto;html=1;fontSize=16;startSize=8;endSize=8;endArrow=none;endFill=0;entryX=0.5;entryY=0;entryDx=0;entryDy=0;exitX=0;exitY=1;exitDx=0;exitDy=0;" parent="1" source="s7vytsFGn_9YH380_VkC-73" target="thv_v38bxxTgWXxaM8OV-6" edge="1">
          <mxGeometry relative="1" as="geometry">
            <mxPoint x="140" y="10" as="sourcePoint" />
            <mxPoint x="159.5" y="131" as="targetPoint" />
          </mxGeometry>
        </mxCell>
        <mxCell id="thv_v38bxxTgWXxaM8OV-8" value="" style="edgeStyle=none;curved=1;rounded=0;orthogonalLoop=1;jettySize=auto;html=1;fontSize=16;startSize=8;endSize=8;endArrow=none;endFill=0;entryX=0.5;entryY=0;entryDx=0;entryDy=0;exitX=1;exitY=1;exitDx=0;exitDy=0;" parent="1" source="s7vytsFGn_9YH380_VkC-73" target="thv_v38bxxTgWXxaM8OV-5" edge="1">
          <mxGeometry relative="1" as="geometry">
            <mxPoint x="149" y="-29" as="sourcePoint" />
            <mxPoint x="110" y="50" as="targetPoint" />
          </mxGeometry>
        </mxCell>
        <mxCell id="thv_v38bxxTgWXxaM8OV-12" value="Innov 1" style="text;html=1;align=center;verticalAlign=middle;whiteSpace=wrap;rounded=0;fontSize=16;fontColor=#67AB9F;" parent="1" vertex="1">
          <mxGeometry x="50" y="-100" width="60" height="30" as="geometry" />
        </mxCell>
        <mxCell id="J1t7YMm2EJ_y1uc_iS2--1" value="" style="rounded=0;whiteSpace=wrap;html=1;fillColor=none;dashed=1;dashPattern=8 8;strokeWidth=2;fontColor=#67AB9F;strokeColor=#7F00FF;" vertex="1" parent="1">
          <mxGeometry x="640" y="-250" width="230" height="210" as="geometry" />
        </mxCell>
        <mxCell id="J1t7YMm2EJ_y1uc_iS2--2" value="" style="rounded=0;whiteSpace=wrap;html=1;fillColor=none;dashed=1;dashPattern=8 8;strokeWidth=2;fontColor=#67AB9F;strokeColor=#FF0000;" vertex="1" parent="1">
          <mxGeometry x="710" y="-410" width="400" height="240" as="geometry" />
        </mxCell>
        <mxCell id="J1t7YMm2EJ_y1uc_iS2--3" value="D" style="ellipse;whiteSpace=wrap;html=1;fontSize=16;fillColor=#f5f5f5;strokeColor=#666666;fontColor=#333333;" vertex="1" parent="1">
          <mxGeometry x="720" y="-240" width="60" height="60" as="geometry" />
        </mxCell>
        <mxCell id="J1t7YMm2EJ_y1uc_iS2--6" value="T" style="ellipse;whiteSpace=wrap;html=1;fontSize=16;fillColor=#f5f5f5;fontColor=#333333;strokeColor=#666666;" vertex="1" parent="1">
          <mxGeometry x="880" y="-401" width="60" height="60" as="geometry" />
        </mxCell>
        <mxCell id="J1t7YMm2EJ_y1uc_iS2--8" value="b" style="ellipse;whiteSpace=wrap;html=1;fontSize=16;fillColor=#f8cecc;strokeColor=#b85450;" vertex="1" parent="1">
          <mxGeometry x="880" y="-240" width="60" height="60" as="geometry" />
        </mxCell>
        <mxCell id="J1t7YMm2EJ_y1uc_iS2--9" value="c" style="ellipse;whiteSpace=wrap;html=1;fontSize=16;fillColor=#f8cecc;strokeColor=#b85450;" vertex="1" parent="1">
          <mxGeometry x="1040" y="-240" width="60" height="60" as="geometry" />
        </mxCell>
        <mxCell id="J1t7YMm2EJ_y1uc_iS2--10" value="" style="edgeStyle=none;curved=1;rounded=0;orthogonalLoop=1;jettySize=auto;html=1;fontSize=16;startSize=8;endSize=8;endArrow=none;endFill=0;" edge="1" source="J1t7YMm2EJ_y1uc_iS2--6" target="J1t7YMm2EJ_y1uc_iS2--8" parent="1">
          <mxGeometry relative="1" as="geometry">
            <mxPoint x="707" y="-333" as="sourcePoint" />
            <mxPoint x="681" y="-273" as="targetPoint" />
          </mxGeometry>
        </mxCell>
        <mxCell id="J1t7YMm2EJ_y1uc_iS2--11" value="" style="edgeStyle=none;curved=1;rounded=0;orthogonalLoop=1;jettySize=auto;html=1;fontSize=16;startSize=8;endSize=8;endArrow=none;endFill=0;" edge="1" source="J1t7YMm2EJ_y1uc_iS2--6" target="J1t7YMm2EJ_y1uc_iS2--9" parent="1">
          <mxGeometry relative="1" as="geometry">
            <mxPoint x="884" y="-332" as="sourcePoint" />
            <mxPoint x="866" y="-274" as="targetPoint" />
          </mxGeometry>
        </mxCell>
        <mxCell id="J1t7YMm2EJ_y1uc_iS2--13" value="" style="edgeStyle=none;curved=1;rounded=0;orthogonalLoop=1;jettySize=auto;html=1;fontSize=16;startSize=8;endSize=8;endArrow=none;endFill=0;exitX=0;exitY=1;exitDx=0;exitDy=0;entryX=0.5;entryY=0;entryDx=0;entryDy=0;" edge="1" source="J1t7YMm2EJ_y1uc_iS2--6" target="J1t7YMm2EJ_y1uc_iS2--3" parent="1">
          <mxGeometry relative="1" as="geometry">
            <mxPoint x="892" y="-331" as="sourcePoint" />
            <mxPoint x="892" y="-275" as="targetPoint" />
          </mxGeometry>
        </mxCell>
        <mxCell id="J1t7YMm2EJ_y1uc_iS2--16" value="Innov 2" style="text;html=1;align=center;verticalAlign=middle;whiteSpace=wrap;rounded=0;fontSize=16;fontColor=#FF0000;" vertex="1" parent="1">
          <mxGeometry x="710" y="-410" width="60" height="30" as="geometry" />
        </mxCell>
        <mxCell id="J1t7YMm2EJ_y1uc_iS2--17" value="D" style="ellipse;whiteSpace=wrap;html=1;fontSize=16;fillColor=#f5f5f5;strokeColor=#666666;fontColor=#333333;" vertex="1" parent="1">
          <mxGeometry x="800" y="-110" width="60" height="60" as="geometry" />
        </mxCell>
        <mxCell id="J1t7YMm2EJ_y1uc_iS2--18" value="c" style="ellipse;whiteSpace=wrap;html=1;fontSize=16;fillColor=#f8cecc;strokeColor=#b85450;" vertex="1" parent="1">
          <mxGeometry x="660" y="-110" width="60" height="60" as="geometry" />
        </mxCell>
        <mxCell id="J1t7YMm2EJ_y1uc_iS2--19" value="" style="edgeStyle=none;curved=1;rounded=0;orthogonalLoop=1;jettySize=auto;html=1;fontSize=16;startSize=8;endSize=8;endArrow=none;endFill=0;entryX=0.5;entryY=0;entryDx=0;entryDy=0;exitX=0;exitY=1;exitDx=0;exitDy=0;" edge="1" source="J1t7YMm2EJ_y1uc_iS2--3" target="J1t7YMm2EJ_y1uc_iS2--18" parent="1">
          <mxGeometry relative="1" as="geometry">
            <mxPoint x="730" y="-140" as="sourcePoint" />
            <mxPoint x="749.5" y="-19" as="targetPoint" />
          </mxGeometry>
        </mxCell>
        <mxCell id="J1t7YMm2EJ_y1uc_iS2--20" value="" style="edgeStyle=none;curved=1;rounded=0;orthogonalLoop=1;jettySize=auto;html=1;fontSize=16;startSize=8;endSize=8;endArrow=none;endFill=0;entryX=0.5;entryY=0;entryDx=0;entryDy=0;exitX=1;exitY=1;exitDx=0;exitDy=0;" edge="1" source="J1t7YMm2EJ_y1uc_iS2--3" target="J1t7YMm2EJ_y1uc_iS2--17" parent="1">
          <mxGeometry relative="1" as="geometry">
            <mxPoint x="739" y="-179" as="sourcePoint" />
            <mxPoint x="700" y="-100" as="targetPoint" />
          </mxGeometry>
        </mxCell>
        <mxCell id="J1t7YMm2EJ_y1uc_iS2--21" value="&lt;span style=&quot;color: rgb(127, 0, 255);&quot;&gt;Innov 4&lt;/span&gt;" style="text;html=1;align=center;verticalAlign=middle;whiteSpace=wrap;rounded=0;fontSize=16;fontColor=#67AB9F;" vertex="1" parent="1">
          <mxGeometry x="640" y="-250" width="60" height="30" as="geometry" />
        </mxCell>
        <mxCell id="J1t7YMm2EJ_y1uc_iS2--22" value="a" style="ellipse;whiteSpace=wrap;html=1;fontSize=16;fillColor=#f8cecc;strokeColor=#b85450;" vertex="1" parent="1">
          <mxGeometry x="760" y="20" width="60" height="60" as="geometry" />
        </mxCell>
        <mxCell id="J1t7YMm2EJ_y1uc_iS2--23" value="a" style="ellipse;whiteSpace=wrap;html=1;fontSize=16;fillColor=#f8cecc;strokeColor=#b85450;" vertex="1" parent="1">
          <mxGeometry x="850" y="20" width="60" height="60" as="geometry" />
        </mxCell>
        <mxCell id="J1t7YMm2EJ_y1uc_iS2--24" value="" style="edgeStyle=none;curved=1;rounded=0;orthogonalLoop=1;jettySize=auto;html=1;fontSize=16;startSize=8;endSize=8;endArrow=none;endFill=0;entryX=0.5;entryY=0;entryDx=0;entryDy=0;exitX=1;exitY=1;exitDx=0;exitDy=0;" edge="1" parent="1" source="J1t7YMm2EJ_y1uc_iS2--17" target="J1t7YMm2EJ_y1uc_iS2--23">
          <mxGeometry relative="1" as="geometry">
            <mxPoint x="830" y="-30" as="sourcePoint" />
            <mxPoint x="869" y="49" as="targetPoint" />
          </mxGeometry>
        </mxCell>
        <mxCell id="J1t7YMm2EJ_y1uc_iS2--25" value="" style="edgeStyle=none;curved=1;rounded=0;orthogonalLoop=1;jettySize=auto;html=1;fontSize=16;startSize=8;endSize=8;endArrow=none;endFill=0;entryX=0.5;entryY=0;entryDx=0;entryDy=0;exitX=0;exitY=1;exitDx=0;exitDy=0;" edge="1" parent="1" source="J1t7YMm2EJ_y1uc_iS2--17" target="J1t7YMm2EJ_y1uc_iS2--22">
          <mxGeometry relative="1" as="geometry">
            <mxPoint x="841" y="-49" as="sourcePoint" />
            <mxPoint x="880" y="30" as="targetPoint" />
          </mxGeometry>
        </mxCell>
        <mxCell id="J1t7YMm2EJ_y1uc_iS2--26" value="" style="rounded=0;whiteSpace=wrap;html=1;fillColor=none;dashed=1;dashPattern=8 8;strokeWidth=2;strokeColor=#000000;" vertex="1" parent="1">
          <mxGeometry x="730" y="-120" width="190" height="210" as="geometry" />
        </mxCell>
        <mxCell id="J1t7YMm2EJ_y1uc_iS2--27" value="&lt;span style=&quot;&quot;&gt;Innov 5&lt;/span&gt;" style="text;html=1;align=center;verticalAlign=middle;whiteSpace=wrap;rounded=0;fontSize=16;fontColor=#000000;" vertex="1" parent="1">
          <mxGeometry x="730" y="-120" width="60" height="30" as="geometry" />
        </mxCell>
        <mxCell id="J1t7YMm2EJ_y1uc_iS2--28" value="Expression Tree 1" style="text;strokeColor=none;align=center;fillColor=none;html=1;verticalAlign=middle;whiteSpace=wrap;rounded=0;fontSize=16;fontStyle=5" vertex="1" parent="1">
          <mxGeometry x="-10" y="-460" width="140" height="30" as="geometry" />
        </mxCell>
        <mxCell id="J1t7YMm2EJ_y1uc_iS2--29" value="Expression Tree 2" style="text;strokeColor=none;align=center;fillColor=none;html=1;verticalAlign=middle;whiteSpace=wrap;rounded=0;fontSize=16;fontStyle=5" vertex="1" parent="1">
          <mxGeometry x="620" y="-460" width="140" height="30" as="geometry" />
        </mxCell>
        <mxCell id="J1t7YMm2EJ_y1uc_iS2--32" value="" style="shape=table;startSize=0;container=1;collapsible=0;childLayout=tableLayout;fontSize=16;" vertex="1" parent="1">
          <mxGeometry x="30" y="180" width="1056" height="130" as="geometry" />
        </mxCell>
        <mxCell id="J1t7YMm2EJ_y1uc_iS2--38" value="" style="shape=tableRow;horizontal=0;startSize=0;swimlaneHead=0;swimlaneBody=0;strokeColor=inherit;top=0;left=0;bottom=0;right=0;collapsible=0;dropTarget=0;fillColor=none;points=[[0,0.5],[1,0.5]];portConstraint=eastwest;" vertex="1" parent="J1t7YMm2EJ_y1uc_iS2--32">
          <mxGeometry width="1056" height="65" as="geometry" />
        </mxCell>
        <mxCell id="J1t7YMm2EJ_y1uc_iS2--39" value="Expression&amp;nbsp; Tree 1 Innovation Composition" style="shape=partialRectangle;html=1;whiteSpace=wrap;connectable=0;strokeColor=inherit;overflow=hidden;fillColor=none;top=0;left=0;bottom=0;right=0;pointerEvents=1;fontSize=16;" vertex="1" parent="J1t7YMm2EJ_y1uc_iS2--38">
          <mxGeometry width="176" height="65" as="geometry">
            <mxRectangle width="176" height="65" as="alternateBounds" />
          </mxGeometry>
        </mxCell>
        <mxCell id="J1t7YMm2EJ_y1uc_iS2--52" value="1" style="shape=partialRectangle;html=1;whiteSpace=wrap;connectable=0;strokeColor=#6c8ebf;overflow=hidden;fillColor=#dae8fc;top=0;left=0;bottom=0;right=0;pointerEvents=1;fontSize=16;" vertex="1" parent="J1t7YMm2EJ_y1uc_iS2--38">
          <mxGeometry x="176" width="177" height="65" as="geometry">
            <mxRectangle width="177" height="65" as="alternateBounds" />
          </mxGeometry>
        </mxCell>
        <mxCell id="J1t7YMm2EJ_y1uc_iS2--49" value="2" style="shape=partialRectangle;html=1;whiteSpace=wrap;connectable=0;strokeColor=#82b366;overflow=hidden;fillColor=#d5e8d4;top=0;left=0;bottom=0;right=0;pointerEvents=1;fontSize=16;" vertex="1" parent="J1t7YMm2EJ_y1uc_iS2--38">
          <mxGeometry x="353" width="176" height="65" as="geometry">
            <mxRectangle width="176" height="65" as="alternateBounds" />
          </mxGeometry>
        </mxCell>
        <mxCell id="J1t7YMm2EJ_y1uc_iS2--40" value="3" style="shape=partialRectangle;html=1;whiteSpace=wrap;connectable=0;strokeColor=#6c8ebf;overflow=hidden;fillColor=#dae8fc;top=0;left=0;bottom=0;right=0;pointerEvents=1;fontSize=16;" vertex="1" parent="J1t7YMm2EJ_y1uc_iS2--38">
          <mxGeometry x="529" width="175" height="65" as="geometry">
            <mxRectangle width="175" height="65" as="alternateBounds" />
          </mxGeometry>
        </mxCell>
        <mxCell id="J1t7YMm2EJ_y1uc_iS2--41" value="" style="shape=partialRectangle;html=1;whiteSpace=wrap;connectable=0;strokeColor=inherit;overflow=hidden;fillColor=none;top=0;left=0;bottom=0;right=0;pointerEvents=1;" vertex="1" parent="J1t7YMm2EJ_y1uc_iS2--38">
          <mxGeometry x="704" width="177" height="65" as="geometry">
            <mxRectangle width="177" height="65" as="alternateBounds" />
          </mxGeometry>
        </mxCell>
        <mxCell id="J1t7YMm2EJ_y1uc_iS2--42" value="" style="shape=partialRectangle;html=1;whiteSpace=wrap;connectable=0;strokeColor=inherit;overflow=hidden;fillColor=none;top=0;left=0;bottom=0;right=0;pointerEvents=1;" vertex="1" parent="J1t7YMm2EJ_y1uc_iS2--38">
          <mxGeometry x="881" width="175" height="65" as="geometry">
            <mxRectangle width="175" height="65" as="alternateBounds" />
          </mxGeometry>
        </mxCell>
        <mxCell id="J1t7YMm2EJ_y1uc_iS2--43" value="" style="shape=tableRow;horizontal=0;startSize=0;swimlaneHead=0;swimlaneBody=0;strokeColor=inherit;top=0;left=0;bottom=0;right=0;collapsible=0;dropTarget=0;fillColor=none;points=[[0,0.5],[1,0.5]];portConstraint=eastwest;" vertex="1" parent="J1t7YMm2EJ_y1uc_iS2--32">
          <mxGeometry y="65" width="1056" height="65" as="geometry" />
        </mxCell>
        <mxCell id="J1t7YMm2EJ_y1uc_iS2--44" value="Expression Tree 2 Innovation Composition" style="shape=partialRectangle;html=1;whiteSpace=wrap;connectable=0;strokeColor=inherit;overflow=hidden;fillColor=none;top=0;left=0;bottom=0;right=0;pointerEvents=1;fontSize=16;" vertex="1" parent="J1t7YMm2EJ_y1uc_iS2--43">
          <mxGeometry width="176" height="65" as="geometry">
            <mxRectangle width="176" height="65" as="alternateBounds" />
          </mxGeometry>
        </mxCell>
        <mxCell id="J1t7YMm2EJ_y1uc_iS2--53" style="shape=partialRectangle;html=1;whiteSpace=wrap;connectable=0;strokeColor=inherit;overflow=hidden;fillColor=none;top=0;left=0;bottom=0;right=0;pointerEvents=1;" vertex="1" parent="J1t7YMm2EJ_y1uc_iS2--43">
          <mxGeometry x="176" width="177" height="65" as="geometry">
            <mxRectangle width="177" height="65" as="alternateBounds" />
          </mxGeometry>
        </mxCell>
        <mxCell id="J1t7YMm2EJ_y1uc_iS2--50" value="2" style="shape=partialRectangle;html=1;whiteSpace=wrap;connectable=0;strokeColor=#82b366;overflow=hidden;fillColor=#d5e8d4;top=0;left=0;bottom=0;right=0;pointerEvents=1;fontSize=16;" vertex="1" parent="J1t7YMm2EJ_y1uc_iS2--43">
          <mxGeometry x="353" width="176" height="65" as="geometry">
            <mxRectangle width="176" height="65" as="alternateBounds" />
          </mxGeometry>
        </mxCell>
        <mxCell id="J1t7YMm2EJ_y1uc_iS2--45" value="" style="shape=partialRectangle;html=1;whiteSpace=wrap;connectable=0;strokeColor=inherit;overflow=hidden;fillColor=none;top=0;left=0;bottom=0;right=0;pointerEvents=1;" vertex="1" parent="J1t7YMm2EJ_y1uc_iS2--43">
          <mxGeometry x="529" width="175" height="65" as="geometry">
            <mxRectangle width="175" height="65" as="alternateBounds" />
          </mxGeometry>
        </mxCell>
        <mxCell id="J1t7YMm2EJ_y1uc_iS2--46" value="4" style="shape=partialRectangle;html=1;whiteSpace=wrap;connectable=0;strokeColor=#6c8ebf;overflow=hidden;fillColor=#dae8fc;top=0;left=0;bottom=0;right=0;pointerEvents=1;fontSize=16;" vertex="1" parent="J1t7YMm2EJ_y1uc_iS2--43">
          <mxGeometry x="704" width="177" height="65" as="geometry">
            <mxRectangle width="177" height="65" as="alternateBounds" />
          </mxGeometry>
        </mxCell>
        <mxCell id="J1t7YMm2EJ_y1uc_iS2--47" value="&lt;font&gt;5&lt;/font&gt;" style="shape=partialRectangle;html=1;whiteSpace=wrap;connectable=0;strokeColor=#6c8ebf;overflow=hidden;fillColor=#dae8fc;top=0;left=0;bottom=0;right=0;pointerEvents=1;fontSize=16;" vertex="1" parent="J1t7YMm2EJ_y1uc_iS2--43">
          <mxGeometry x="881" width="175" height="65" as="geometry">
            <mxRectangle width="175" height="65" as="alternateBounds" />
          </mxGeometry>
        </mxCell>
        <mxCell id="J1t7YMm2EJ_y1uc_iS2--61" value="&lt;b&gt;&lt;u&gt;2&lt;/u&gt;&lt;/b&gt; Matching Genes" style="whiteSpace=wrap;html=1;aspect=fixed;fontSize=16;fillColor=#d5e8d4;strokeColor=#82b366;" vertex="1" parent="1">
          <mxGeometry x="470" y="360" width="80" height="80" as="geometry" />
        </mxCell>
        <mxCell id="J1t7YMm2EJ_y1uc_iS2--62" value="&lt;b&gt;&lt;u&gt;4&lt;/u&gt;&lt;/b&gt; Matching Genes" style="whiteSpace=wrap;html=1;aspect=fixed;fontSize=16;fillColor=#dae8fc;strokeColor=#6c8ebf;" vertex="1" parent="1">
          <mxGeometry x="580" y="360" width="80" height="80" as="geometry" />
        </mxCell>
      </root>
    </mxGraphModel>
  </diagram>
</mxfile>
